<svg width="207" height="80" viewBox="0 0 207 80" fill="none" xmlns="http://www.w3.org/2000/svg">
<path fill-rule="evenodd" clip-rule="evenodd" d="M52.3159 63.0061H65.7249L41.8149 0H30.8292L7 63.0061H20.409L25.4979 49.0317H47.1462L52.3159 63.0061ZM42.865 37.2382H29.7791L36.3221 19.3865L42.865 37.2382ZM110.942 31.6646C109.731 28.9182 108.115 26.4949 106.015 24.3139C103.834 22.2137 101.411 20.5982 98.6643 19.3865C95.8371 18.1749 92.8484 17.6094 89.698 17.6094C86.6285 17.6094 83.559 18.1749 80.7318 19.3865C77.9854 20.5982 75.5621 22.2137 73.3811 24.3139C71.2809 26.4141 69.6653 28.9182 68.4537 31.6646C67.3228 34.4918 66.6766 37.4806 66.6766 40.6309V74.9611L78.7931 79V60.9059C79.4394 61.229 80.0856 61.5522 80.7318 61.7945C83.559 63.0061 86.6285 63.6524 89.698 63.6524C92.7676 63.6524 95.8371 63.0061 98.6643 61.7945C101.411 60.6636 103.834 59.0481 106.015 56.8671C108.115 54.7669 109.731 52.3436 110.942 49.5972C112.154 46.77 112.719 43.7004 112.719 40.6309C112.719 37.4806 112.154 34.4918 110.942 31.6646ZM89.698 51.5358C83.7205 51.5358 78.7931 46.6084 78.7931 40.6309C78.7931 34.6534 83.7205 29.726 89.698 29.726C95.6755 29.726 100.603 34.6534 100.603 40.6309C100.603 46.6084 95.6755 51.5358 89.698 51.5358ZM144.811 61.3905C141.903 62.6829 138.833 63.3292 135.683 63.3292C129.544 63.3292 123.889 60.9059 119.527 56.6247C115.246 52.3435 112.904 46.6083 112.904 40.55C112.904 34.4918 115.246 28.7566 119.527 24.4754C123.889 20.1942 129.544 17.7709 135.683 17.7709C141.741 17.7709 147.476 20.1942 151.758 24.4754C156.039 28.7566 158.381 34.4918 158.381 40.55V46.4468H126.313C128.251 49.5163 131.725 51.6165 135.683 51.6165C138.752 51.6165 141.58 50.4048 143.68 48.1431L152.242 56.2208C150.142 58.4018 147.638 60.1789 144.811 61.3905ZM135.683 29.4836C131.725 29.4836 128.251 31.5838 126.313 34.7341H145.053C143.034 31.5838 139.56 29.4836 135.683 29.4836Z" fill="#FB8E0B"/>
<path d="M185.866 63.0061H200.244L183.846 40.3885L200.082 18.0132H185.462L176.496 30.5337L167.691 18.0132H152.828L169.226 40.3077L152.909 63.0061H167.206L176.576 50.5664L185.866 63.0061Z" fill="#FD6003"/>
</svg>
