<svg width="167" height="50" viewBox="0 0 167 50" fill="none" xmlns="http://www.w3.org/2000/svg">
<g clip-path="url(#clip0_6_117)">
<rect width="167" height="50" rx="8" fill="#FB8E0B"/>
<path d="M27.125 30.192C26.069 30.192 25.1463 29.952 24.357 29.472C23.5677 28.992 22.9543 28.32 22.517 27.456C22.0797 26.592 21.861 25.584 21.861 24.432C21.861 23.2907 22.085 22.2827 22.533 21.408C22.981 20.5333 23.6157 19.8507 24.437 19.36C25.269 18.8587 26.2503 18.608 27.381 18.608C28.661 18.608 29.7277 18.9173 30.581 19.536C31.4343 20.1547 31.989 21.008 32.245 22.096H30.325C30.1543 21.4987 29.8183 21.0293 29.317 20.688C28.8157 20.3467 28.1703 20.176 27.381 20.176C26.2077 20.176 25.285 20.5547 24.613 21.312C23.941 22.0693 23.605 23.1147 23.605 24.448C23.605 25.7813 23.9357 26.8213 24.597 27.568C25.2583 28.3147 26.1383 28.688 27.237 28.688C28.3463 28.688 29.1783 28.3733 29.733 27.744C30.2983 27.1147 30.629 26.2773 30.725 25.232H27.685V23.92H32.437V30H30.885L30.741 28.352C30.3677 28.9387 29.8983 29.392 29.333 29.712C28.7677 30.032 28.0317 30.192 27.125 30.192ZM38.1434 30.192C37.3647 30.192 36.6714 30.0213 36.0634 29.68C35.466 29.328 34.9967 28.8427 34.6554 28.224C34.314 27.6053 34.1434 26.8853 34.1434 26.064C34.1434 25.232 34.3087 24.5013 34.6394 23.872C34.9807 23.2427 35.45 22.752 36.0474 22.4C36.6554 22.048 37.3594 21.872 38.1594 21.872C38.938 21.872 39.6154 22.048 40.1914 22.4C40.7674 22.7413 41.2154 23.2 41.5354 23.776C41.8554 24.352 42.0154 24.9867 42.0154 25.68C42.0154 25.7867 42.01 25.904 41.9994 26.032C41.9994 26.1493 41.994 26.2827 41.9834 26.432H35.8074C35.8607 27.2 36.1114 27.7867 36.5594 28.192C37.018 28.5867 37.546 28.784 38.1434 28.784C38.6234 28.784 39.0234 28.6773 39.3434 28.464C39.674 28.24 39.9194 27.9413 40.0794 27.568H41.7754C41.562 28.3147 41.1354 28.9387 40.4954 29.44C39.866 29.9413 39.082 30.192 38.1434 30.192ZM38.1434 23.264C37.578 23.264 37.0767 23.4347 36.6394 23.776C36.202 24.1067 35.9354 24.608 35.8394 25.28H40.3194C40.2874 24.6613 40.0687 24.1707 39.6634 23.808C39.258 23.4453 38.7514 23.264 38.1434 23.264ZM46.9 30C46.1213 30 45.5027 29.8133 45.044 29.44C44.5853 29.056 44.356 28.3787 44.356 27.408V23.488H42.996V22.064H44.356L44.564 20.048H46.052V22.064H48.292V23.488H46.052V27.408C46.052 27.8453 46.1427 28.1493 46.324 28.32C46.516 28.48 46.8413 28.56 47.3 28.56H48.212V30H46.9ZM57.832 30.192C57.0107 30.192 56.2907 30.048 55.672 29.76C55.0533 29.472 54.568 29.0613 54.216 28.528C53.8747 27.9947 53.6987 27.36 53.688 26.624H55.48C55.4907 27.2213 55.6987 27.728 56.104 28.144C56.5093 28.56 57.08 28.768 57.816 28.768C58.4667 28.768 58.9733 28.6133 59.336 28.304C59.7093 27.984 59.896 27.5787 59.896 27.088C59.896 26.6933 59.8053 26.3733 59.624 26.128C59.4533 25.8827 59.2133 25.68 58.904 25.52C58.6053 25.36 58.2587 25.216 57.864 25.088C57.4693 24.96 57.0533 24.8213 56.616 24.672C55.752 24.384 55.1013 24.0107 54.664 23.552C54.2373 23.0933 54.024 22.4907 54.024 21.744C54.0133 21.1147 54.1573 20.5653 54.456 20.096C54.7653 19.6267 55.192 19.264 55.736 19.008C56.2907 18.7413 56.936 18.608 57.672 18.608C58.3973 18.608 59.032 18.7413 59.576 19.008C60.1307 19.2747 60.5627 19.648 60.872 20.128C61.1813 20.5973 61.3413 21.1467 61.352 21.776H59.56C59.56 21.488 59.4853 21.216 59.336 20.96C59.1867 20.6933 58.968 20.4747 58.68 20.304C58.392 20.1333 58.04 20.048 57.624 20.048C57.0907 20.0373 56.648 20.1707 56.296 20.448C55.9547 20.7253 55.784 21.1093 55.784 21.6C55.784 22.0373 55.912 22.3733 56.168 22.608C56.424 22.8427 56.776 23.04 57.224 23.2C57.672 23.3493 58.184 23.5253 58.76 23.728C59.3147 23.9093 59.8107 24.128 60.248 24.384C60.6853 24.64 61.032 24.976 61.288 25.392C61.5547 25.808 61.688 26.336 61.688 26.976C61.688 27.5413 61.544 28.0693 61.256 28.56C60.968 29.04 60.536 29.4347 59.96 29.744C59.384 30.0427 58.6747 30.192 57.832 30.192ZM66.8063 30C66.0276 30 65.4089 29.8133 64.9503 29.44C64.4916 29.056 64.2623 28.3787 64.2623 27.408V23.488H62.9023V22.064H64.2623L64.4703 20.048H65.9583V22.064H68.1983V23.488H65.9583V27.408C65.9583 27.8453 66.0489 28.1493 66.2303 28.32C66.4223 28.48 66.7476 28.56 67.2063 28.56H68.1183V30H66.8063ZM72.635 30.192C71.963 30.192 71.4083 30.08 70.971 29.856C70.5337 29.632 70.2083 29.3387 69.995 28.976C69.7817 28.6027 69.675 28.1973 69.675 27.76C69.675 26.992 69.9737 26.384 70.571 25.936C71.1683 25.488 72.0217 25.264 73.131 25.264H75.211V25.12C75.211 24.5013 75.0403 24.0373 74.699 23.728C74.3683 23.4187 73.9363 23.264 73.403 23.264C72.9337 23.264 72.523 23.3813 72.171 23.616C71.8297 23.84 71.6217 24.176 71.547 24.624H69.851C69.9043 24.048 70.0963 23.5573 70.427 23.152C70.7683 22.736 71.195 22.4213 71.707 22.208C72.2297 21.984 72.8003 21.872 73.419 21.872C74.5283 21.872 75.387 22.1653 75.995 22.752C76.603 23.328 76.907 24.1173 76.907 25.12V30H75.435L75.291 28.64C75.067 29.0773 74.7417 29.4453 74.315 29.744C73.8883 30.0427 73.3283 30.192 72.635 30.192ZM72.971 28.816C73.4297 28.816 73.8137 28.7093 74.123 28.496C74.443 28.272 74.6883 27.9787 74.859 27.616C75.0403 27.2533 75.1523 26.8533 75.195 26.416H73.307C72.635 26.416 72.155 26.5333 71.867 26.768C71.5897 27.0027 71.451 27.296 71.451 27.648C71.451 28.0107 71.5843 28.2987 71.851 28.512C72.1283 28.7147 72.5017 28.816 72.971 28.816ZM78.8845 30V22.064H80.4045L80.5485 23.568C80.8258 23.0453 81.2098 22.6347 81.7005 22.336C82.2018 22.0267 82.8045 21.872 83.5085 21.872V23.648H83.0445C82.5752 23.648 82.1538 23.728 81.7805 23.888C81.4178 24.0373 81.1245 24.2987 80.9005 24.672C80.6872 25.0347 80.5805 25.5413 80.5805 26.192V30H78.8845ZM88.2906 30C87.512 30 86.8933 29.8133 86.4346 29.44C85.976 29.056 85.7466 28.3787 85.7466 27.408V23.488H84.3866V22.064H85.7466L85.9546 20.048H87.4426V22.064H89.6826V23.488H87.4426V27.408C87.4426 27.8453 87.5333 28.1493 87.7146 28.32C87.9066 28.48 88.232 28.56 88.6906 28.56H89.6026V30H88.2906ZM94.9403 30.192C94.1616 30.192 93.4683 30.0213 92.8603 29.68C92.2629 29.328 91.7936 28.8427 91.4523 28.224C91.1109 27.6053 90.9403 26.8853 90.9403 26.064C90.9403 25.232 91.1056 24.5013 91.4363 23.872C91.7776 23.2427 92.2469 22.752 92.8443 22.4C93.4523 22.048 94.1563 21.872 94.9563 21.872C95.7349 21.872 96.4123 22.048 96.9883 22.4C97.5643 22.7413 98.0123 23.2 98.3323 23.776C98.6523 24.352 98.8123 24.9867 98.8123 25.68C98.8123 25.7867 98.8069 25.904 98.7963 26.032C98.7963 26.1493 98.7909 26.2827 98.7803 26.432H92.6043C92.6576 27.2 92.9083 27.7867 93.3563 28.192C93.8149 28.5867 94.3429 28.784 94.9403 28.784C95.4203 28.784 95.8203 28.6773 96.1403 28.464C96.4709 28.24 96.7163 27.9413 96.8763 27.568H98.5723C98.3589 28.3147 97.9323 28.9387 97.2923 29.44C96.6629 29.9413 95.8789 30.192 94.9403 30.192ZM94.9403 23.264C94.3749 23.264 93.8736 23.4347 93.4363 23.776C92.9989 24.1067 92.7323 24.608 92.6363 25.28H97.1163C97.0843 24.6613 96.8656 24.1707 96.4603 23.808C96.0549 23.4453 95.5483 23.264 94.9403 23.264ZM104.188 30.192C103.42 30.192 102.743 30.0107 102.156 29.648C101.569 29.2853 101.111 28.7893 100.78 28.16C100.449 27.5307 100.284 26.816 100.284 26.016C100.284 25.216 100.449 24.5067 100.78 23.888C101.111 23.2587 101.569 22.768 102.156 22.416C102.753 22.0533 103.436 21.872 104.204 21.872C104.833 21.872 105.383 21.9947 105.852 22.24C106.332 22.4853 106.705 22.832 106.972 23.28V18.48H108.668V30H107.148L106.972 28.768C106.716 29.1413 106.364 29.472 105.916 29.76C105.468 30.048 104.892 30.192 104.188 30.192ZM104.492 28.72C105.217 28.72 105.809 28.4693 106.268 27.968C106.737 27.4667 106.972 26.8213 106.972 26.032C106.972 25.232 106.737 24.5867 106.268 24.096C105.809 23.5947 105.217 23.344 104.492 23.344C103.767 23.344 103.169 23.5947 102.7 24.096C102.231 24.5867 101.996 25.232 101.996 26.032C101.996 26.5547 102.103 27.0187 102.316 27.424C102.529 27.8293 102.823 28.1493 103.196 28.384C103.58 28.608 104.012 28.72 104.492 28.72ZM114.902 30V18.8H121.926V20.176H116.598V23.712H121.014V25.072H116.598V30H114.902ZM123.525 30V22.064H125.045L125.189 23.568C125.466 23.0453 125.85 22.6347 126.341 22.336C126.842 22.0267 127.445 21.872 128.149 21.872V23.648H127.685C127.216 23.648 126.794 23.728 126.421 23.888C126.058 24.0373 125.765 24.2987 125.541 24.672C125.328 25.0347 125.221 25.5413 125.221 26.192V30H123.525ZM133.097 30.192C132.318 30.192 131.625 30.0213 131.017 29.68C130.419 29.328 129.95 28.8427 129.609 28.224C129.267 27.6053 129.097 26.8853 129.097 26.064C129.097 25.232 129.262 24.5013 129.593 23.872C129.934 23.2427 130.403 22.752 131.001 22.4C131.609 22.048 132.313 21.872 133.113 21.872C133.891 21.872 134.569 22.048 135.145 22.4C135.721 22.7413 136.169 23.2 136.489 23.776C136.809 24.352 136.969 24.9867 136.969 25.68C136.969 25.7867 136.963 25.904 136.953 26.032C136.953 26.1493 136.947 26.2827 136.937 26.432H130.761C130.814 27.2 131.065 27.7867 131.513 28.192C131.971 28.5867 132.499 28.784 133.097 28.784C133.577 28.784 133.977 28.6773 134.297 28.464C134.627 28.24 134.873 27.9413 135.033 27.568H136.729C136.515 28.3147 136.089 28.9387 135.449 29.44C134.819 29.9413 134.035 30.192 133.097 30.192ZM133.097 23.264C132.531 23.264 132.03 23.4347 131.593 23.776C131.155 24.1067 130.889 24.608 130.793 25.28H135.273C135.241 24.6613 135.022 24.1707 134.617 23.808C134.211 23.4453 133.705 23.264 133.097 23.264ZM142.44 30.192C141.662 30.192 140.968 30.0213 140.36 29.68C139.763 29.328 139.294 28.8427 138.952 28.224C138.611 27.6053 138.44 26.8853 138.44 26.064C138.44 25.232 138.606 24.5013 138.936 23.872C139.278 23.2427 139.747 22.752 140.344 22.4C140.952 22.048 141.656 21.872 142.456 21.872C143.235 21.872 143.912 22.048 144.488 22.4C145.064 22.7413 145.512 23.2 145.832 23.776C146.152 24.352 146.312 24.9867 146.312 25.68C146.312 25.7867 146.307 25.904 146.296 26.032C146.296 26.1493 146.291 26.2827 146.28 26.432H140.104C140.158 27.2 140.408 27.7867 140.856 28.192C141.315 28.5867 141.843 28.784 142.44 28.784C142.92 28.784 143.32 28.6773 143.64 28.464C143.971 28.24 144.216 27.9413 144.376 27.568H146.072C145.859 28.3147 145.432 28.9387 144.792 29.44C144.163 29.9413 143.379 30.192 142.44 30.192ZM142.44 23.264C141.875 23.264 141.374 23.4347 140.936 23.776C140.499 24.1067 140.232 24.608 140.136 25.28H144.616C144.584 24.6613 144.366 24.1707 143.96 23.808C143.555 23.4453 143.048 23.264 142.44 23.264Z" fill="white"/>
</g>
<defs>
<clipPath id="clip0_6_117">
<rect width="167" height="50" fill="white"/>
</clipPath>
</defs>
</svg>
