<svg width="220" height="56" viewBox="0 0 220 56" fill="none" xmlns="http://www.w3.org/2000/svg">
<g clip-path="url(#clip0_6_128)">
<rect width="220" height="56" rx="8" fill="#FB8E0B"/>
<path d="M31.1289 33.192C30.3075 33.192 29.5875 33.048 28.9689 32.76C28.3502 32.472 27.8649 32.0613 27.5129 31.528C27.1715 30.9947 26.9955 30.36 26.9849 29.624H28.7769C28.7875 30.2213 28.9955 30.728 29.4009 31.144C29.8062 31.56 30.3769 31.768 31.1129 31.768C31.7635 31.768 32.2702 31.6133 32.6329 31.304C33.0062 30.984 33.1929 30.5787 33.1929 30.088C33.1929 29.6933 33.1022 29.3733 32.9209 29.128C32.7502 28.8827 32.5102 28.68 32.2009 28.52C31.9022 28.36 31.5555 28.216 31.1609 28.088C30.7662 27.96 30.3502 27.8213 29.9129 27.672C29.0489 27.384 28.3982 27.0107 27.9609 26.552C27.5342 26.0933 27.3209 25.4907 27.3209 24.744C27.3102 24.1147 27.4542 23.5653 27.7529 23.096C28.0622 22.6267 28.4889 22.264 29.0329 22.008C29.5875 21.7413 30.2329 21.608 30.9689 21.608C31.6942 21.608 32.3289 21.7413 32.8729 22.008C33.4275 22.2747 33.8595 22.648 34.1689 23.128C34.4782 23.5973 34.6382 24.1467 34.6489 24.776H32.8569C32.8569 24.488 32.7822 24.216 32.6329 23.96C32.4835 23.6933 32.2649 23.4747 31.9769 23.304C31.6889 23.1333 31.3369 23.048 30.9209 23.048C30.3875 23.0373 29.9449 23.1707 29.5929 23.448C29.2515 23.7253 29.0809 24.1093 29.0809 24.6C29.0809 25.0373 29.2089 25.3733 29.4649 25.608C29.7209 25.8427 30.0729 26.04 30.5209 26.2C30.9689 26.3493 31.4809 26.5253 32.0569 26.728C32.6115 26.9093 33.1075 27.128 33.5449 27.384C33.9822 27.64 34.3289 27.976 34.5849 28.392C34.8515 28.808 34.9849 29.336 34.9849 29.976C34.9849 30.5413 34.8409 31.0693 34.5529 31.56C34.2649 32.04 33.8329 32.4347 33.2569 32.744C32.6809 33.0427 31.9715 33.192 31.1289 33.192ZM40.1031 33C39.3245 33 38.7058 32.8133 38.2471 32.44C37.7885 32.056 37.5591 31.3787 37.5591 30.408V26.488H36.1991V25.064H37.5591L37.7671 23.048H39.2551V25.064H41.4951V26.488H39.2551V30.408C39.2551 30.8453 39.3458 31.1493 39.5271 31.32C39.7191 31.48 40.0445 31.56 40.5031 31.56H41.4151V33H40.1031ZM45.9319 33.192C45.2599 33.192 44.7052 33.08 44.2679 32.856C43.8305 32.632 43.5052 32.3387 43.2919 31.976C43.0785 31.6027 42.9719 31.1973 42.9719 30.76C42.9719 29.992 43.2705 29.384 43.8679 28.936C44.4652 28.488 45.3185 28.264 46.4279 28.264H48.5079V28.12C48.5079 27.5013 48.3372 27.0373 47.9959 26.728C47.6652 26.4187 47.2332 26.264 46.6999 26.264C46.2305 26.264 45.8199 26.3813 45.4679 26.616C45.1265 26.84 44.9185 27.176 44.8439 27.624H43.1479C43.2012 27.048 43.3932 26.5573 43.7239 26.152C44.0652 25.736 44.4919 25.4213 45.0039 25.208C45.5265 24.984 46.0972 24.872 46.7159 24.872C47.8252 24.872 48.6839 25.1653 49.2919 25.752C49.8999 26.328 50.2039 27.1173 50.2039 28.12V33H48.7319L48.5879 31.64C48.3639 32.0773 48.0385 32.4453 47.6119 32.744C47.1852 33.0427 46.6252 33.192 45.9319 33.192ZM46.2679 31.816C46.7265 31.816 47.1105 31.7093 47.4199 31.496C47.7399 31.272 47.9852 30.9787 48.1559 30.616C48.3372 30.2533 48.4492 29.8533 48.4919 29.416H46.6039C45.9319 29.416 45.4519 29.5333 45.1639 29.768C44.8865 30.0027 44.7479 30.296 44.7479 30.648C44.7479 31.0107 44.8812 31.2987 45.1479 31.512C45.4252 31.7147 45.7985 31.816 46.2679 31.816ZM52.1814 33V25.064H53.7014L53.8454 26.568C54.1227 26.0453 54.5067 25.6347 54.9974 25.336C55.4987 25.0267 56.1014 24.872 56.8054 24.872V26.648H56.3414C55.872 26.648 55.4507 26.728 55.0774 26.888C54.7147 27.0373 54.4214 27.2987 54.1974 27.672C53.984 28.0347 53.8774 28.5413 53.8774 29.192V33H52.1814ZM61.5875 33C60.8088 33 60.1902 32.8133 59.7315 32.44C59.2728 32.056 59.0435 31.3787 59.0435 30.408V26.488H57.6835V25.064H59.0435L59.2515 23.048H60.7395V25.064H62.9795V26.488H60.7395V30.408C60.7395 30.8453 60.8302 31.1493 61.0115 31.32C61.2035 31.48 61.5288 31.56 61.9875 31.56H62.8995V33H61.5875ZM73.8155 33.192C72.7062 33.192 71.7462 32.952 70.9355 32.472C70.1355 31.9813 69.5168 31.304 69.0795 30.44C68.6422 29.5653 68.4235 28.5573 68.4235 27.416C68.4235 26.264 68.6422 25.256 69.0795 24.392C69.5168 23.5173 70.1355 22.8347 70.9355 22.344C71.7462 21.8533 72.7062 21.608 73.8155 21.608C75.1275 21.608 76.1995 21.928 77.0315 22.568C77.8635 23.208 78.3915 24.104 78.6155 25.256H76.7275C76.5782 24.6053 76.2582 24.088 75.7675 23.704C75.2768 23.32 74.6208 23.128 73.7995 23.128C72.6795 23.128 71.7942 23.512 71.1435 24.28C70.4928 25.0373 70.1675 26.0827 70.1675 27.416C70.1675 28.7387 70.4928 29.7787 71.1435 30.536C71.7942 31.2933 72.6795 31.672 73.7995 31.672C74.6208 31.672 75.2768 31.4907 75.7675 31.128C76.2582 30.7653 76.5782 30.2693 76.7275 29.64H78.6155C78.3915 30.7493 77.8635 31.6187 77.0315 32.248C76.1995 32.8773 75.1275 33.192 73.8155 33.192ZM80.4158 33V21.48H82.1118V26.344C82.3784 25.8853 82.7464 25.528 83.2158 25.272C83.6958 25.0053 84.2238 24.872 84.7998 24.872C85.7491 24.872 86.4958 25.1707 87.0398 25.768C87.5838 26.3653 87.8558 27.256 87.8558 28.44V33H86.1758V28.616C86.1758 27.08 85.5624 26.312 84.3358 26.312C83.6958 26.312 83.1624 26.536 82.7358 26.984C82.3198 27.432 82.1118 28.072 82.1118 28.904V33H80.4158ZM92.5413 33.192C91.8693 33.192 91.3146 33.08 90.8773 32.856C90.4399 32.632 90.1146 32.3387 89.9013 31.976C89.6879 31.6027 89.5813 31.1973 89.5813 30.76C89.5813 29.992 89.8799 29.384 90.4773 28.936C91.0746 28.488 91.9279 28.264 93.0373 28.264H95.1173V28.12C95.1173 27.5013 94.9466 27.0373 94.6053 26.728C94.2746 26.4187 93.8426 26.264 93.3093 26.264C92.8399 26.264 92.4293 26.3813 92.0773 26.616C91.7359 26.84 91.5279 27.176 91.4533 27.624H89.7573C89.8106 27.048 90.0026 26.5573 90.3333 26.152C90.6746 25.736 91.1013 25.4213 91.6133 25.208C92.1359 24.984 92.7066 24.872 93.3253 24.872C94.4346 24.872 95.2933 25.1653 95.9013 25.752C96.5093 26.328 96.8133 27.1173 96.8133 28.12V33H95.3413L95.1973 31.64C94.9733 32.0773 94.6479 32.4453 94.2213 32.744C93.7946 33.0427 93.2346 33.192 92.5413 33.192ZM92.8773 31.816C93.3359 31.816 93.7199 31.7093 94.0293 31.496C94.3493 31.272 94.5946 30.9787 94.7653 30.616C94.9466 30.2533 95.0586 29.8533 95.1013 29.416H93.2133C92.5413 29.416 92.0613 29.5333 91.7733 29.768C91.4959 30.0027 91.3573 30.296 91.3573 30.648C91.3573 31.0107 91.4906 31.2987 91.7573 31.512C92.0346 31.7147 92.4079 31.816 92.8773 31.816ZM101.963 33C101.184 33 100.565 32.8133 100.107 32.44C99.6478 32.056 99.4185 31.3787 99.4185 30.408V26.488H98.0585V25.064H99.4185L99.6265 23.048H101.115V25.064H103.355V26.488H101.115V30.408C101.115 30.8453 101.205 31.1493 101.387 31.32C101.579 31.48 101.904 31.56 102.363 31.56H103.275V33H101.963ZM108.431 33C107.653 33 107.034 32.8133 106.575 32.44C106.117 32.056 105.887 31.3787 105.887 30.408V26.488H104.527V25.064H105.887L106.095 23.048H107.583V25.064H109.823V26.488H107.583V30.408C107.583 30.8453 107.674 31.1493 107.855 31.32C108.047 31.48 108.373 31.56 108.831 31.56H109.743V33H108.431ZM112.532 23.56C112.212 23.56 111.945 23.464 111.732 23.272C111.529 23.0693 111.428 22.8187 111.428 22.52C111.428 22.2213 111.529 21.976 111.732 21.784C111.945 21.5813 112.212 21.48 112.532 21.48C112.852 21.48 113.113 21.5813 113.316 21.784C113.529 21.976 113.636 22.2213 113.636 22.52C113.636 22.8187 113.529 23.0693 113.316 23.272C113.113 23.464 112.852 23.56 112.532 23.56ZM111.684 33V25.064H113.38V33H111.684ZM115.619 33V25.064H117.123L117.251 26.456C117.496 25.9653 117.854 25.5813 118.323 25.304C118.803 25.016 119.352 24.872 119.971 24.872C120.931 24.872 121.683 25.1707 122.227 25.768C122.782 26.3653 123.059 27.256 123.059 28.44V33H121.379V28.616C121.379 27.08 120.75 26.312 119.491 26.312C118.862 26.312 118.339 26.536 117.923 26.984C117.518 27.432 117.315 28.072 117.315 28.904V33H115.619ZM128.304 30.568C127.888 30.568 127.504 30.52 127.152 30.424L126.464 31.096C126.582 31.1707 126.726 31.2347 126.896 31.288C127.067 31.3413 127.307 31.3893 127.616 31.432C127.926 31.4747 128.347 31.5173 128.88 31.56C129.936 31.656 130.699 31.912 131.168 32.328C131.638 32.7333 131.872 33.2773 131.872 33.96C131.872 34.4293 131.744 34.872 131.488 35.288C131.243 35.7147 130.854 36.056 130.32 36.312C129.798 36.5787 129.126 36.712 128.304 36.712C127.195 36.712 126.294 36.4987 125.6 36.072C124.918 35.656 124.576 35.0213 124.576 34.168C124.576 33.8373 124.662 33.5067 124.832 33.176C125.014 32.856 125.296 32.552 125.68 32.264C125.456 32.168 125.259 32.0667 125.088 31.96C124.928 31.8427 124.784 31.7253 124.656 31.608V31.224L126.032 29.816C125.414 29.2827 125.104 28.584 125.104 27.72C125.104 27.1973 125.227 26.7227 125.472 26.296C125.728 25.8587 126.096 25.512 126.576 25.256C127.056 25 127.632 24.872 128.304 24.872C128.752 24.872 129.168 24.936 129.552 25.064H132.512V26.184L131.104 26.264C131.36 26.7013 131.488 27.1867 131.488 27.72C131.488 28.2533 131.36 28.7333 131.104 29.16C130.859 29.5867 130.496 29.928 130.016 30.184C129.547 30.44 128.976 30.568 128.304 30.568ZM128.304 29.24C128.795 29.24 129.19 29.112 129.488 28.856C129.798 28.5893 129.952 28.216 129.952 27.736C129.952 27.2453 129.798 26.872 129.488 26.616C129.19 26.36 128.795 26.232 128.304 26.232C127.803 26.232 127.398 26.36 127.088 26.616C126.79 26.872 126.64 27.2453 126.64 27.736C126.64 28.216 126.79 28.5893 127.088 28.856C127.398 29.112 127.803 29.24 128.304 29.24ZM126.176 34.008C126.176 34.4667 126.379 34.808 126.784 35.032C127.19 35.2667 127.696 35.384 128.304 35.384C128.891 35.384 129.366 35.256 129.728 35C130.091 34.7547 130.272 34.424 130.272 34.008C130.272 33.6987 130.15 33.432 129.904 33.208C129.659 32.9947 129.195 32.8613 128.512 32.808C128 32.776 127.547 32.728 127.152 32.664C126.779 32.8667 126.523 33.0853 126.384 33.32C126.246 33.5547 126.176 33.784 126.176 34.008ZM138.12 33V21.8H139.816L145.432 30.232V21.8H147.128V33H145.432L139.816 24.568V33H138.12ZM153.05 33.192C152.292 33.192 151.61 33.0213 151.002 32.68C150.404 32.328 149.93 31.8427 149.578 31.224C149.226 30.5947 149.05 29.864 149.05 29.032C149.05 28.2 149.226 27.4747 149.578 26.856C149.94 26.2267 150.426 25.7413 151.034 25.4C151.642 25.048 152.319 24.872 153.066 24.872C153.823 24.872 154.5 25.048 155.098 25.4C155.706 25.7413 156.186 26.2267 156.538 26.856C156.9 27.4747 157.082 28.2 157.082 29.032C157.082 29.864 156.9 30.5947 156.538 31.224C156.186 31.8427 155.706 32.328 155.098 32.68C154.49 33.0213 153.807 33.192 153.05 33.192ZM153.05 31.736C153.455 31.736 153.828 31.6347 154.17 31.432C154.522 31.2293 154.804 30.9307 155.018 30.536C155.231 30.1307 155.338 29.6293 155.338 29.032C155.338 28.4347 155.231 27.9387 155.018 27.544C154.815 27.1387 154.538 26.8347 154.186 26.632C153.844 26.4293 153.471 26.328 153.066 26.328C152.66 26.328 152.282 26.4293 151.93 26.632C151.588 26.8347 151.311 27.1387 151.098 27.544C150.884 27.9387 150.778 28.4347 150.778 29.032C150.778 29.6293 150.884 30.1307 151.098 30.536C151.311 30.9307 151.588 31.2293 151.93 31.432C152.271 31.6347 152.644 31.736 153.05 31.736ZM160.203 33L157.867 25.064H159.563L161.099 31.048L162.827 25.064H164.715L166.443 31.048L167.979 25.064H169.675L167.339 33H165.595L163.771 26.76L161.947 33H160.203Z" fill="white"/>
<mask id="mask0_6_128" style="mask-type:alpha" maskUnits="userSpaceOnUse" x="179" y="19" width="18" height="18">
<rect x="179" y="19" width="18" height="18" fill="white"/>
</mask>
<g mask="url(#mask0_6_128)">
<path d="M190.207 22.0429L189.5 22.75L189.5 22.75L190.207 22.0429ZM188.793 22.0429L188.086 21.3358V21.3358L188.793 22.0429ZM195.457 27.2929L194.75 28V28L195.457 27.2929ZM195.457 28.7071L194.75 28L194.75 28L195.457 28.7071ZM194.043 28.7071L194.75 28L194.75 28L194.043 28.7071ZM188.793 23.4571L189.5 22.75V22.75L188.793 23.4571ZM195.457 28.7071L194.75 28L195.457 28.7071ZM195.457 27.2929L194.75 28L194.75 28L195.457 27.2929ZM190.207 33.9571L189.5 33.25L189.5 33.25L190.207 33.9571ZM188.793 33.9571L189.5 33.25L188.793 33.9571ZM188.793 32.5429L189.5 33.25V33.25L188.793 32.5429ZM194.043 27.2929L194.75 28V28L194.043 27.2929ZM181.25 27L181.25 26H181.25V27ZM180.25 28H179.25H180.25ZM194.75 27V28V27ZM194.75 29V30V29ZM181.25 29L181.25 28H181.25V29ZM190.914 21.3358C190.133 20.5547 188.867 20.5547 188.086 21.3358L189.5 22.75L189.5 22.75L190.914 21.3358ZM196.164 26.5858L190.914 21.3358L189.5 22.75L194.75 28L196.164 26.5858ZM196.164 29.4142C196.945 28.6332 196.945 27.3668 196.164 26.5858L194.75 28L194.75 28L196.164 29.4142ZM193.336 29.4142C194.117 30.1953 195.383 30.1953 196.164 29.4142L194.75 28H194.75L193.336 29.4142ZM188.086 24.1642L193.336 29.4142L194.75 28L189.5 22.75L188.086 24.1642ZM188.086 21.3358C187.305 22.1168 187.305 23.3832 188.086 24.1642L189.5 22.75V22.75L188.086 21.3358ZM196.164 29.4142C196.945 28.6332 196.945 27.3668 196.164 26.5858L194.75 28V28L196.164 29.4142ZM190.914 34.6642L196.164 29.4142L194.75 28L189.5 33.25L190.914 34.6642ZM188.086 34.6642C188.867 35.4453 190.133 35.4453 190.914 34.6642L189.5 33.25L189.5 33.25L188.086 34.6642ZM188.086 31.8358C187.305 32.6168 187.305 33.8832 188.086 34.6642L189.5 33.25V33.25L188.086 31.8358ZM193.336 26.5858L188.086 31.8358L189.5 33.25L194.75 28L193.336 26.5858ZM196.164 26.5858C195.383 25.8047 194.117 25.8047 193.336 26.5858L194.75 28L194.75 28L196.164 26.5858ZM181.25 26C180.145 26 179.25 26.8954 179.25 28H181.25V26ZM194.75 26L181.25 26L181.25 28L194.75 28V26ZM196.75 28C196.75 26.8954 195.855 26 194.75 26V28H196.75ZM194.75 30C195.855 30 196.75 29.1046 196.75 28H194.75V30ZM181.25 30L194.75 30V28L181.25 28L181.25 30ZM179.25 28C179.25 29.1046 180.145 30 181.25 30V28H179.25Z" fill="#F9FAFB"/>
</g>
</g>
<defs>
<clipPath id="clip0_6_128">
<rect width="220" height="56" fill="white"/>
</clipPath>
</defs>
</svg>
